<?xml version="1.0" encoding="utf-8"?>
<!DOCTYPE svg PUBLIC "-//W3C//DTD SVG 1.1//EN" "http://www.w3.org/Graphics/SVG/1.1/DTD/svg11.dtd">
<svg version="1.1" xmlns="http://www.w3.org/2000/svg" xmlns:xlink="http://www.w3.org/1999/xlink" x="0px" y="0px" viewBox="0 0 1000 1000" enable-background="new 0 0 1000 1000" xml:space="preserve">
<g><path d="M985.7,537c-11-38.1-98.2-71.6-115.5-78c-18.6-6.8-66.4-23.1-112.2-29.2c-80.5-39.4-170.8-66.9-172.5-67.4c-1.4-0.3-37.2-7.8-136.8-7.8c-66.3,0-131,13.1-188,24.6c-29.9,6-58.1,11.8-83.1,14.8c-72,8.9-126.1,9.7-126.7,9.7c-4.3,0.1-8.1,2.7-9.7,6.7c-1.3,3.2-31,77.9-31,112.1c0,37,51.6,74.2,57.5,78.3c1.8,1.3,3.9,1.9,6.1,1.9h21.5c16,25.5,44.1,42.6,76.4,42.6c32.3,0,60.4-17.1,76.4-42.6h442.6c15.4,25.4,43,42.6,74.8,42.6c31.8,0,59.4-17.2,74.8-42.6h136.2c4.6,0,8.7-3,10.2-7.4C986.8,594.3,994.8,568.5,985.7,537z M723.6,437.3c-18.5,3.9-38.9,6.3-61.3,7.4l0.6-1c1.5-2.7,1.7-6,0.6-9c-1.1-3-3.5-5.2-6.4-6.3l-32.1-11.3c-2.9-1-6.1-0.7-8.8,0.7c-2.7,1.5-4.6,4.1-5.2,7.1l-4.2,20.2c-54.3-1.8-114.7-9-181.5-18.2l29.2-50.9c91,0.3,125.1,7.1,125.3,7.1C581,383.3,652.1,405.1,723.6,437.3z M264.7,400.1c50.5-10.2,107.2-21.1,164.9-23.3l-26.9,46.9c-11.9-1.7-24-3.4-36.4-5.2c-37.2-5.3-75.1-10.7-114.5-15.8C256.1,401.9,260.4,401,264.7,400.1z M171.5,624.1c-38.1,0-69.1-31-69.1-69.1c0-38.1,31-69.1,69.1-69.1c38.1,0,69.1,30.9,69.1,69.1C240.6,593,209.6,624.1,171.5,624.1z M765.3,624.1c-36.6,0-66.3-29.8-66.3-66.3c0-36.6,29.7-66.3,66.3-66.3c36.6,0,66.3,29.8,66.3,66.3C831.6,594.3,801.8,624.1,765.3,624.1z"/><path d="M171.5,511c24.3,0,44,19.7,44,44c0,24.3-19.7,44-44,44s-44-19.7-44-44C127.5,530.7,147.2,511,171.5,511z"/><path d="M765.3,513.7c24.3,0,44,19.7,44,44c0,24.3-19.7,44-44,44c-24.3,0-44-19.7-44-44C721.3,533.4,741,513.7,765.3,513.7z"/></g>
</svg>