<svg width="14" height="14" viewBox="0 0 14 14" fill="none" xmlns="http://www.w3.org/2000/svg">
<path d="M0 0.592529H13.2411V7.74048L12.5857 8.76454L13.2411 9.67595V13.8336H0V7.09532L0.409624 6.62425L0 6.17366V0.592529Z" fill="#016FD0"/>
<path d="M2.57031 9.81932V7.74048H4.77142L5.00758 8.04834L5.25154 7.74048H13.241V9.67595C13.241 9.67595 13.0321 9.81724 12.7904 9.81932H8.3665L8.10024 9.49162V9.81932H7.22774V9.25993C7.22774 9.25993 7.10856 9.33801 6.85089 9.33801H6.55391V9.81932H5.23287L4.99705 9.50486L4.75762 9.81932H2.57031Z" fill="white"/>
<path d="M0 6.17379L0.496359 5.0166H1.35476L1.63645 5.66481V5.0166H2.70352L2.87121 5.48511L3.03378 5.0166H7.82383V5.25214C7.82383 5.25214 8.07564 5.0166 8.48947 5.0166L10.0437 5.02203L10.3205 5.66176V5.0166H11.2135L11.4592 5.38407V5.0166H12.3604V7.09545H11.4592L11.2237 6.72678V7.09545H9.91172L9.77979 6.76775H9.42708L9.29729 7.09545H8.40754C8.05145 7.09545 7.82383 6.86472 7.82383 6.86472V7.09545H6.48231L6.21605 6.76775V7.09545H1.22759L1.09575 6.76775H0.744164L0.613248 7.09545H0L0 6.17379Z" fill="white"/>
<path fill-rule="evenodd" clip-rule="evenodd" d="M0.00244141 6.82928L0.671921 5.27271H1.17947L1.84831 6.82928H1.40285L1.27996 6.51758H0.561835L0.438307 6.82928H0.00244141ZM1.13862 6.17977L0.919728 5.63509L0.700195 6.17977H1.13862Z" fill="#016FD0"/>
<path d="M1.89453 6.82928V5.27271L2.51392 5.27501L2.87418 6.27859L3.22581 5.27271H3.84025V6.82928H3.4511V5.68233L3.0386 6.82928H2.69732L2.28367 5.68233V6.82928H1.89453Z" fill="#016FD0"/>
<path d="M4.10645 6.82928V5.27271H5.37628V5.62089H4.49968V5.88714H5.3558V6.21484H4.49968V6.49134H5.37628V6.82928H4.10645Z" fill="#016FD0"/>
<path fill-rule="evenodd" clip-rule="evenodd" d="M5.60156 6.82928V5.27271H6.46753C6.75447 5.27271 7.01157 5.45014 7.01157 5.7777C7.01157 6.05771 6.7948 6.23807 6.58466 6.2558L7.09669 6.82928H6.62114L6.15456 6.27628H5.99071V6.82928H5.60156ZM6.43539 5.62093H5.99056V5.94863H6.44115C6.51914 5.94863 6.61972 5.88819 6.61972 5.78478C6.61972 5.7044 6.54209 5.62093 6.43539 5.62093Z" fill="#016FD0"/>
<path d="M7.56775 6.82928H7.17041V5.27271H7.56775V6.82928Z" fill="#016FD0"/>
<path d="M8.51001 6.82928H8.42424C8.00927 6.82928 7.75732 6.50235 7.75732 6.05739C7.75732 5.60144 8.00645 5.27271 8.53049 5.27271H8.9606V5.64137H8.51477C8.30204 5.64137 8.15159 5.80738 8.15159 6.06123C8.15159 6.36268 8.32362 6.48929 8.57145 6.48929H8.67386L8.51001 6.82928Z" fill="#016FD0"/>
<path fill-rule="evenodd" clip-rule="evenodd" d="M8.68701 6.82928L9.35649 5.27271H9.86404L10.5329 6.82928H10.0874L9.96453 6.51758H9.2464L9.12288 6.82928H8.68701ZM9.82319 6.17977L9.6043 5.63509L9.38477 6.17977H9.82319Z" fill="#016FD0"/>
<path d="M10.5786 6.82928V5.27271H11.0734L11.7051 6.25068V5.27271H12.0942V6.82928H11.6155L10.9678 5.8257V6.82928H10.5786Z" fill="#016FD0"/>
<path d="M2.83643 9.55315V7.99658H4.10626V8.34476H3.22967V8.61102H4.08578V8.93872H3.22967V9.21521H4.10626V9.55315H2.83643Z" fill="#016FD0"/>
<path d="M9.05908 9.55315V7.99658H10.3289V8.34476H9.45232V8.61102H10.3043V8.93872H9.45232V9.21521H10.3289V9.55315H9.05908Z" fill="#016FD0"/>
<path d="M4.15583 9.55315L4.77411 8.78447L4.14111 7.99658H4.63138L5.00837 8.48365L5.38663 7.99658H5.8577L5.23302 8.77487L5.85243 9.55315H5.36224L4.9962 9.07376L4.63906 9.55315H4.15583Z" fill="#016FD0"/>
<path fill-rule="evenodd" clip-rule="evenodd" d="M5.89844 9.5534V7.99683H6.75801C7.11071 7.99683 7.31676 8.22415 7.31676 8.52038C7.31676 8.87797 7.05405 9.06185 6.70745 9.06185H6.29782V9.5534H5.89844ZM6.72924 8.34896H6.29785V8.70738H6.72796C6.84161 8.70738 6.92125 8.63206 6.92125 8.52817C6.92125 8.41759 6.84121 8.34896 6.72924 8.34896Z" fill="#016FD0"/>
<path fill-rule="evenodd" clip-rule="evenodd" d="M7.48584 9.55315V7.99658H8.35181C8.63875 7.99658 8.89584 8.17402 8.89584 8.50157C8.89584 8.78159 8.67908 8.96195 8.46894 8.97968L8.98097 9.55315H8.50542L8.03883 9.00016H7.87498V9.55315H7.48584ZM8.31983 8.34473H7.875V8.67242H8.32559C8.40358 8.67242 8.50416 8.61199 8.50416 8.50858C8.50416 8.4282 8.42653 8.34473 8.31983 8.34473Z" fill="#016FD0"/>
<path d="M10.5089 9.55315V9.21521H11.2877C11.4029 9.21521 11.4528 9.15294 11.4528 9.08465C11.4528 9.01921 11.4031 8.95306 11.2877 8.95306H10.9358C10.6298 8.95306 10.4595 8.76668 10.4595 8.48685C10.4595 8.23727 10.6155 7.99658 11.0701 7.99658H11.8279L11.664 8.34681H11.0086C10.8833 8.34681 10.8448 8.41255 10.8448 8.47533C10.8448 8.53986 10.8924 8.61102 10.9881 8.61102H11.3568C11.6978 8.61102 11.8458 8.80445 11.8458 9.05777C11.8458 9.3301 11.6809 9.55315 11.3382 9.55315H10.5089Z" fill="#016FD0"/>
<path d="M11.9371 9.55315V9.21521H12.7159C12.8311 9.21521 12.881 9.15294 12.881 9.08465C12.881 9.01921 12.8313 8.95306 12.7159 8.95306H12.364C12.0581 8.95306 11.8877 8.76668 11.8877 8.48685C11.8877 8.23727 12.0437 7.99658 12.4983 7.99658H13.2561L13.0922 8.34681H12.4368C12.3116 8.34681 12.273 8.41255 12.273 8.47533C12.273 8.53986 12.3207 8.61102 12.4164 8.61102H12.785C13.126 8.61102 13.274 8.80445 13.274 9.05777C13.274 9.3301 13.1091 9.55315 12.7665 9.55315H11.9371Z" fill="#016FD0"/>
</svg>
