<svg width="11" height="10" viewBox="0 0 11 10" fill="none" xmlns="http://www.w3.org/2000/svg">
<path d="M9.56639 5.30886L5.5958 9.24133L1.62522 5.30886C1.36332 5.05401 1.15703 4.74769 1.01933 4.4092C0.881633 4.0707 0.815514 3.70737 0.825137 3.34206C0.834759 2.97676 0.919915 2.6174 1.07524 2.28663C1.23057 1.95585 1.4527 1.66082 1.72765 1.42011C2.0026 1.1794 2.32441 0.998227 2.67282 0.887999C3.02123 0.777772 3.38869 0.740877 3.75206 0.77964C4.11543 0.818402 4.46683 0.931981 4.78415 1.11322C5.10147 1.29447 5.37782 1.53945 5.5958 1.83274C5.81473 1.54158 6.09141 1.29874 6.4085 1.11942C6.7256 0.940098 7.0763 0.828159 7.43865 0.790608C7.801 0.753057 8.1672 0.790703 8.51433 0.901188C8.86146 1.01167 9.18205 1.19262 9.45604 1.4327C9.73002 1.67279 9.9515 1.96684 10.1066 2.29645C10.2617 2.62607 10.3471 2.98415 10.3575 3.3483C10.3679 3.71244 10.3029 4.0748 10.1668 4.4127C10.0307 4.7506 9.82629 5.05677 9.56639 5.31204" stroke="#19707D" stroke-width="1.07692" stroke-linecap="round" stroke-linejoin="round"/>
</svg>
